# xmcd
#
# Track frame offsets:
#	150
#	11632
#	21435
#	33257
#	45107
#	59652
#	71215
#	82822
#	94012
#	107532
#	118102
#	133090
#	146715
#	156660
#
# Disc length: 2199 seconds
#
# Revision: 1
# Processed by: cddbd v1.4PL0 Copyright (c) Steve Scherf et al.
# Submitted via: CDmax 2.0
#
DISCID=c008950e
DTITLE=Willie Nelson - On The Road Again CD2
DYEAR=1900
DGENRE=Country
TTITLE0=December Days
TTITLE1=I Didn't Sleep A Wink
TTITLE2=The End Of Understanding
TTITLE3=I Hope So
TTITLE4=Will You Remember Mine
TTITLE5=Is There Something On Your Mind
TTITLE6=Some Other Time
TTITLE7=Suffering In Silence
TTITLE8=The Last Letter
TTITLE9=Blame It On The Times
TTITLE10=The Face of A Fighter
TTITLE11=Everything But You
TTITLE12=Broken Promises
TTITLE13=Slow Down Old World
EXTD=
EXTT0=
EXTT1=
EXTT2=
EXTT3=
EXTT4=
EXTT5=
EXTT6=
EXTT7=
EXTT8=
EXTT9=
EXTT10=
EXTT11=
EXTT12=
EXTT13=
PLAYORDER=
